<svg xmlns="http://www.w3.org/2000/svg" viewBox="-112 -112 224 224">
  <path d="M 0,-54
           C 15,-54 30,-47 40,-35
           C 50,-23 53,0 45,20
           C 37,40 16,56 -9,58
           C -34,60 -58,49 -69,28
           C -80,7 -77,-21 -61,-43
           C -45,-65 -16,-78 14,-78
           C 44,-78 72,-64 88,-40
           C 104,-16 104,14 91,39
           C 78,64 54,81 24,88
           C -6,95 -38,91 -63,76
           C -88,61 -103,36 -106,8
           C -109,-20 -99,-48 -80,-68
           C -61,-88 -34,-100 -2,-100
           C 30,-100 62,-88 82,-67
           C 102,-46 108,-16 100,13
           C 92,42 72,66 46,80"
        fill="none" stroke="#7de8a8" stroke-width="3" stroke-linecap="round"/>
  <circle cx="0" cy="-54" r="7" fill="#7de8a8"/>
</svg>
